<svg width="439" height="281" viewBox="0 0 439 281" fill="none" xmlns="http://www.w3.org/2000/svg">
<g filter="url(#filter0_d_2_4)">
<path d="M153.083 180.097C154.478 180.097 155.552 180.741 156.303 182.029C157.162 183.317 157.591 185.088 157.591 187.342C157.591 191.635 156.571 194.963 154.532 197.324C149.595 203.013 144.496 207.682 139.237 211.331C134.085 214.98 128.182 216.805 121.527 216.805C116.053 216.805 111.921 215.249 109.13 212.136C106.339 208.916 104.944 204.301 104.944 198.29C104.944 195.285 105.695 189.918 107.198 182.19C108.593 175.428 109.291 170.759 109.291 168.183C109.291 166.466 108.701 165.607 107.52 165.607C106.125 165.607 104.139 167.432 101.563 171.081C98.987 174.623 96.411 179.346 93.835 185.249C91.259 191.152 89.166 197.378 87.556 203.925C85.5167 212.512 80.472 216.805 72.422 216.805C69.202 216.805 67.0553 215.678 65.982 213.424C65.016 211.063 64.533 206.877 64.533 200.866C64.533 197.431 64.5867 194.694 64.694 192.655L64.855 179.775C64.855 163.246 66.5187 146.019 69.846 128.094C73.2807 110.169 78.2717 95.1427 84.819 83.014C91.4737 70.778 99.4163 64.66 108.647 64.66C113.584 64.66 117.556 66.8067 120.561 71.1C123.674 75.286 125.23 80.76 125.23 87.522C125.23 98.3627 122.064 109.633 115.731 121.332C109.398 132.924 99.0943 146.502 84.819 162.065C84.497 167.646 84.336 173.389 84.336 179.292C87.878 170.169 91.7957 162.763 96.089 157.074C100.49 151.278 104.783 147.146 108.969 144.677C113.262 142.208 117.18 140.974 120.722 140.974C127.699 140.974 131.187 144.462 131.187 151.439C131.187 155.625 130.006 163.192 127.645 174.14C125.606 183.478 124.586 189.65 124.586 192.655C124.586 196.948 126.142 199.095 129.255 199.095C131.402 199.095 133.924 197.807 136.822 195.231C139.827 192.548 143.799 188.254 148.736 182.351C150.024 180.848 151.473 180.097 153.083 180.097ZM105.266 80.599C103.334 80.599 101.187 83.3897 98.826 88.971C96.4647 94.445 94.157 101.905 91.903 111.35C89.7563 120.688 87.9853 130.885 86.59 141.94C93.2447 134.105 98.7187 125.572 103.012 116.341C107.413 107.11 109.613 98.7383 109.613 91.225C109.613 87.7903 109.237 85.1607 108.486 83.336C107.735 81.5113 106.661 80.599 105.266 80.599ZM216.348 180.097C217.744 180.097 218.817 180.741 219.568 182.029C220.427 183.317 220.856 185.088 220.856 187.342C220.856 191.635 219.837 194.963 217.797 197.324C213.826 202.154 208.191 206.608 200.892 210.687C193.701 214.766 185.973 216.805 177.708 216.805C166.438 216.805 157.691 213.746 151.465 207.628C145.24 201.51 142.127 193.138 142.127 182.512C142.127 175.106 143.684 168.237 146.796 161.904C149.909 155.464 154.202 150.366 159.676 146.609C165.258 142.852 171.537 140.974 178.513 140.974C184.739 140.974 189.73 142.852 193.486 146.609C197.243 150.258 199.121 155.249 199.121 161.582C199.121 168.988 196.438 175.374 191.071 180.741C185.812 186 176.85 190.186 164.184 193.299C166.868 198.236 171.966 200.705 179.479 200.705C184.309 200.705 189.783 199.041 195.901 195.714C202.127 192.279 207.493 187.825 212.001 182.351C213.289 180.848 214.738 180.097 216.348 180.097ZM175.776 156.752C171.805 156.752 168.424 159.06 165.633 163.675C162.95 168.29 161.608 173.872 161.608 180.419V180.741C167.941 179.238 172.932 176.984 176.581 173.979C180.231 170.974 182.055 167.485 182.055 163.514C182.055 161.475 181.465 159.865 180.284 158.684C179.211 157.396 177.708 156.752 175.776 156.752ZM268.767 180.097C270.162 180.097 271.235 180.741 271.987 182.029C272.845 183.317 273.275 185.088 273.275 187.342C273.275 191.635 272.255 194.963 270.216 197.324C265.6 203.013 260.556 207.682 255.082 211.331C249.715 214.98 243.597 216.805 236.728 216.805C227.282 216.805 220.252 212.512 215.637 203.925C211.129 195.338 208.875 184.229 208.875 170.598C208.875 157.503 210.538 142.584 213.866 125.84C217.3 109.096 222.291 94.7133 228.839 82.692C235.493 70.6707 243.382 64.66 252.506 64.66C257.658 64.66 261.683 67.075 264.581 71.905C267.586 76.6277 269.089 83.4433 269.089 92.352C269.089 105.125 265.547 119.937 258.463 136.788C251.379 153.639 241.772 170.33 229.644 186.859C230.395 191.26 231.629 194.426 233.347 196.358C235.064 198.183 237.318 199.095 240.109 199.095C244.509 199.095 248.373 197.861 251.701 195.392C255.028 192.816 259.268 188.469 264.42 182.351C265.708 180.848 267.157 180.097 268.767 180.097ZM248.964 80.599C246.495 80.599 243.704 85.0533 240.592 93.962C237.479 102.871 234.742 113.926 232.381 127.128C230.019 140.33 228.731 152.995 228.517 165.124C236.137 152.566 242.202 140.008 246.71 127.45C251.218 114.785 253.472 103.246 253.472 92.835C253.472 84.6777 251.969 80.599 248.964 80.599ZM321.28 180.097C322.676 180.097 323.749 180.741 324.5 182.029C325.359 183.317 325.788 185.088 325.788 187.342C325.788 191.635 324.769 194.963 322.729 197.324C318.114 203.013 313.069 207.682 307.595 211.331C302.229 214.98 296.111 216.805 289.241 216.805C279.796 216.805 272.766 212.512 268.15 203.925C263.642 195.338 261.388 184.229 261.388 170.598C261.388 157.503 263.052 142.584 266.379 125.84C269.814 109.096 274.805 94.7133 281.352 82.692C288.007 70.6707 295.896 64.66 305.019 64.66C310.171 64.66 314.196 67.075 317.094 71.905C320.1 76.6277 321.602 83.4433 321.602 92.352C321.602 105.125 318.06 119.937 310.976 136.788C303.892 153.639 294.286 170.33 282.157 186.859C282.909 191.26 284.143 194.426 285.86 196.358C287.578 198.183 289.832 199.095 292.622 199.095C297.023 199.095 300.887 197.861 304.214 195.392C307.542 192.816 311.781 188.469 316.933 182.351C318.221 180.848 319.67 180.097 321.28 180.097ZM301.477 80.599C299.009 80.599 296.218 85.0533 293.105 93.962C289.993 102.871 287.256 113.926 284.894 127.128C282.533 140.33 281.245 152.995 281.03 165.124C288.651 152.566 294.715 140.008 299.223 127.45C303.731 114.785 305.985 103.246 305.985 92.835C305.985 84.6777 304.483 80.599 301.477 80.599ZM339.984 216.805C333.651 216.805 328.231 215.249 323.723 212.136C319.322 208.916 315.995 204.73 313.741 199.578C311.487 194.426 310.36 188.898 310.36 182.995C310.36 174.838 311.863 167.593 314.868 161.26C317.981 154.82 322.167 149.829 327.426 146.287C332.685 142.638 338.589 140.813 345.136 140.813C351.469 140.813 356.889 142.423 361.397 145.643C365.905 148.756 369.286 152.888 371.54 158.04C373.794 163.192 374.921 168.72 374.921 174.623C374.921 182.78 373.365 190.079 370.252 196.519C367.139 202.852 362.9 207.843 357.533 211.492C352.274 215.034 346.424 216.805 339.984 216.805ZM341.755 199.417C345.404 199.417 348.463 197.431 350.932 193.46C353.508 189.489 354.796 183.693 354.796 176.072C354.796 170.169 353.723 165.714 351.576 162.709C349.429 159.704 346.853 158.201 343.848 158.201C339.984 158.201 336.764 160.187 334.188 164.158C331.719 168.022 330.485 173.818 330.485 181.546C330.485 187.664 331.558 192.172 333.705 195.07C335.852 197.968 338.535 199.417 341.755 199.417Z" fill="url(#paint0_linear_2_4)"/>
</g>
<defs>
<filter id="filter0_d_2_4" x="0.533005" y="0.660004" width="438.388" height="280.145" filterUnits="userSpaceOnUse" color-interpolation-filters="sRGB">
<feFlood flood-opacity="0" result="BackgroundImageFix"/>
<feColorMatrix in="SourceAlpha" type="matrix" values="0 0 0 0 0 0 0 0 0 0 0 0 0 0 0 0 0 0 127 0" result="hardAlpha"/>
<feOffset/>
<feGaussianBlur stdDeviation="32"/>
<feComposite in2="hardAlpha" operator="out"/>
<feColorMatrix type="matrix" values="0 0 0 0 0.575 0 0 0 0 0.23902 0 0 0 0 0 0 0 0 1 0"/>
<feBlend mode="normal" in2="BackgroundImageFix" result="effect1_dropShadow_2_4"/>
<feBlend mode="normal" in="SourceGraphic" in2="effect1_dropShadow_2_4" result="shape"/>
</filter>
<linearGradient id="paint0_linear_2_4" x1="86.5" y1="78.5" x2="364.5" y2="209" gradientUnits="userSpaceOnUse">
<stop offset="0.374936" stop-color="#EE0979"/>
<stop offset="1" stop-color="#FF6A00"/>
</linearGradient>
</defs>
</svg>
